<?xml version="1.0" encoding="utf-8"?>
<!-- Generator: Adobe Illustrator 19.0.1, SVG Export Plug-In . SVG Version: 6.00 Build 0)  -->
<svg version="1.1" id="Layer_1" xmlns="http://www.w3.org/2000/svg" xmlns:xlink="http://www.w3.org/1999/xlink" x="0px" y="0px"
	 viewBox="-293.1 385.6 23.6 23.6" style="enable-background:new -293.1 385.6 23.6 23.6;" xml:space="preserve">
<style type="text/css">
	.st0{fill:#C2C2C2;}
</style>
<path class="st0" d="M-271.9,385.6h-18.9c-1.3,0-2.3,1.1-2.3,2.4v18.8c0,1.3,1.1,2.4,2.4,2.4h18.8c1.3,0,2.4-1.1,2.4-2.4V388
	C-269.6,386.7-270.6,385.6-271.9,385.6z M-286.1,405.7h-3.5v-10.6h3.5V405.7z M-287.8,393.1c-1.2,0-2.1-1-2.1-2.1s1-2.1,2.1-2.1
	c1.1,0,2.1,1,2.1,2.1S-286.6,393.1-287.8,393.1z M-273.1,405.7h-3.5v-6.2c0-1-0.8-1.8-1.8-1.8s-1.8,0.8-1.8,1.8v6.2h-3.5v-10.6h3.5
	v1.4c0.6-1,1.9-1.6,2.9-1.6c2.3,0,4.1,1.8,4.1,4.1v6.7H-273.1z"/>
</svg>
