<?xml version="1.0" encoding="utf-8"?>
<!-- Generator: Adobe Illustrator 19.0.1, SVG Export Plug-In . SVG Version: 6.00 Build 0)  -->
<svg version="1.1" id="Layer_1" xmlns="http://www.w3.org/2000/svg" xmlns:xlink="http://www.w3.org/1999/xlink" x="0px" y="0px"
	 viewBox="-293 385.5 23.5 23.5" style="enable-background:new -293 385.5 23.5 23.5;" xml:space="preserve">
<style type="text/css">
	.st0{fill:#C2C2C2;}
</style>
<path class="st0" d="M-271.9,385.5h-18.7c-1.3,0-2.4,1-2.4,2.3v18.8c0,1.3,1.1,2.4,2.4,2.4h18.7c1.3,0,2.4-1.1,2.4-2.4v-18.8
	C-269.5,386.5-270.6,385.5-271.9,385.5z M-273.1,387.8v3.5h-2.4c-0.6,0-1.2,0.5-1.2,1.2v2.4h3.5v3.5h-3.5v8.2h-3.5v-8.2h-2.4v-3.5
	h2.4V392c0-2.3,1.8-4.1,4.1-4.1h3V387.8z"/>
</svg>
