<?xml version="1.0" encoding="utf-8"?>
<!-- Generator: Adobe Illustrator 18.0.0, SVG Export Plug-In . SVG Version: 6.00 Build 0)  -->
<!DOCTYPE svg PUBLIC "-//W3C//DTD SVG 1.1//EN" "http://www.w3.org/Graphics/SVG/1.1/DTD/svg11.dtd">
<svg version="1.1" id="Layer_1" xmlns="http://www.w3.org/2000/svg" xmlns:xlink="http://www.w3.org/1999/xlink" x="0px" y="0px"
	 viewBox="0 0 23.5 23.5" enable-background="new 0 0 23.5 23.5" xml:space="preserve">
<path fill="#C2C2C2" d="M21.2,0H2.4C1.1,0,0,1.1,0,2.4l0,18.8c0,1.3,1.1,2.4,2.4,2.4h18.8c1.3,0,2.4-1.1,2.4-2.4V2.4
	C23.5,1.1,22.5,0,21.2,0z M8.2,17.7c-3.2,0-5.9-2.6-5.9-5.9S5,5.9,8.2,5.9c1.6,0,2.9,0.6,3.9,1.5L10.5,9c-0.4-0.4-1.2-0.9-2.3-0.9
	c-1.9,0-3.5,1.6-3.5,3.6s1.6,3.6,3.5,3.6c2.3,0,3.1-1.6,3.2-2.5H8.2v-2.3h5.5c0.1,0.4,0.1,0.8,0.1,1.3C13.9,15.3,11.6,17.7,8.2,17.7
	z M21.8,12.4h-2.4v2.4h-1.8v-2.4h-2.4v-1.8h2.4V8.2h1.8v2.4h2.4V12.4z"/>
</svg>
