<?xml version="1.0" encoding="utf-8"?>
<!-- Generator: Adobe Illustrator 17.1.0, SVG Export Plug-In . SVG Version: 6.00 Build 0)  -->
<!DOCTYPE svg PUBLIC "-//W3C//DTD SVG 1.1//EN" "http://www.w3.org/Graphics/SVG/1.1/DTD/svg11.dtd">
<svg version="1.1" id="Layer_1" xmlns="http://www.w3.org/2000/svg" xmlns:xlink="http://www.w3.org/1999/xlink" x="0px" y="0px"
	 viewBox="0 0 18 20" enable-background="new 0 0 18 20" xml:space="preserve">
<g>
	<defs>
		<rect id="SVGID_1_" width="18" height="20"/>
	</defs>
	<clipPath id="SVGID_2_">
		<use xlink:href="#SVGID_1_"  overflow="visible"/>
	</clipPath>
	<path clip-path="url(#SVGID_2_)" fill="#4285F4" d="M16,2h-4.2C11.4,0.8,10.3,0,9,0S6.6,0.8,6.2,2H2C0.9,2,0,2.9,0,4v14
		c0,1.1,0.9,2,2,2h14c1.1,0,2-0.9,2-2V4C18,2.9,17.1,2,16,2 M9,2c0.6,0,1,0.5,1,1S9.6,4,9,4S8,3.5,8,3S8.4,2,9,2 M11,16H4v-2h7V16z
		 M14,12H4v-2h10V12z M14,8H4V6h10V8z"/>
</g>
</svg>