<?xml version="1.0" encoding="utf-8"?>
<!-- Generator: Adobe Illustrator 17.1.0, SVG Export Plug-In . SVG Version: 6.00 Build 0)  -->
<!DOCTYPE svg PUBLIC "-//W3C//DTD SVG 1.1//EN" "http://www.w3.org/Graphics/SVG/1.1/DTD/svg11.dtd">
<svg version="1.1" id="Layer_1" xmlns="http://www.w3.org/2000/svg" xmlns:xlink="http://www.w3.org/1999/xlink" x="0px" y="0px"
	 viewBox="0 0 33.5 33.5" enable-background="new 0 0 33.5 33.5" xml:space="preserve">
<path fill="#4285F4" d="M31.6,23.3c-2.3,0-4.6-0.4-6.6-1.1c-0.7-0.2-1.4-0.1-1.9,0.4L19,26.7c-5.3-2.7-9.6-7-12.3-12.3l4.1-4.1
	c0.5-0.5,0.7-1.2,0.5-1.9c-0.7-2.1-1.1-4.3-1.1-6.6c0-1-0.8-1.9-1.9-1.9H1.9C0.8,0,0,0.8,0,1.9c0,17.5,14.2,31.6,31.6,31.6
	c1,0,1.9-0.8,1.9-1.9v-6.5C33.5,24.1,32.7,23.3,31.6,23.3z"/>
</svg>