<?xml version="1.0" encoding="utf-8"?>
<!-- Generator: Adobe Illustrator 17.1.0, SVG Export Plug-In . SVG Version: 6.00 Build 0)  -->
<!DOCTYPE svg PUBLIC "-//W3C//DTD SVG 1.1//EN" "http://www.w3.org/Graphics/SVG/1.1/DTD/svg11.dtd">
<svg version="1.1" id="YouTube_logo_assets" xmlns="http://www.w3.org/2000/svg" xmlns:xlink="http://www.w3.org/1999/xlink"
	 x="0px" y="0px" viewBox="0 0 90 63.3" enable-background="new 0 0 90 63.3" xml:space="preserve">
<path id="Triangle" fill="#FFFFFF" d="M35.7,43.3L60,30.7L35.7,18V43.3z"/>
<g id="Lozenge">
	<g>
		<path fill="#F44336" d="M89.1,13.7c0,0-0.9-6.2-3.6-8.9c-3.4-3.6-7.3-3.6-9-3.8C63.9,0,45,0,45,0h0c0,0-18.9,0-31.5,0.9
			c-1.8,0.2-5.6,0.2-9,3.8c-2.7,2.7-3.6,8.9-3.6,8.9S0,20.9,0,28.2v6.8c0,7.3,0.9,14.6,0.9,14.6s0.9,6.2,3.6,8.9
			c3.4,3.6,7.9,3.5,9.9,3.8c7.2,0.7,30.6,0.9,30.6,0.9s18.9,0,31.5-0.9c1.8-0.2,5.6-0.2,9-3.8c2.7-2.7,3.6-8.9,3.6-8.9
			S90,42.3,90,35.1v-6.8C90,20.9,89.1,13.7,89.1,13.7z M35.7,43.3l0-25.3L60,30.7L35.7,43.3z"/>
	</g>
</g>
</svg>