<?xml version="1.0" encoding="utf-8"?>
<!-- Generator: Adobe Illustrator 17.0.0, SVG Export Plug-In . SVG Version: 6.00 Build 0)  -->
<!DOCTYPE svg PUBLIC "-//W3C//DTD SVG 1.1//EN" "http://www.w3.org/Graphics/SVG/1.1/DTD/svg11.dtd">
<svg version="1.1" xmlns="http://www.w3.org/2000/svg" xmlns:xlink="http://www.w3.org/1999/xlink" x="0px" y="0px"
	 width="594.872px" height="92.037px" viewBox="0.476 374.757 594.872 92.037"
	 enable-background="new 0.476 374.757 594.872 92.037" xml:space="preserve">
<g id="logo_x5F_color">
	<path fill="#4285F4" d="M0.476,410.469c0-19.727,16.53-35.713,36.257-35.713c10.884,0,18.639,4.286,24.489,9.864l-6.938,6.87
		c-4.149-3.945-9.795-7.006-17.55-7.006c-14.353,0-25.577,11.564-25.577,25.917c0,14.353,11.224,25.917,25.577,25.917
		c9.319,0,14.625-3.741,18.026-7.143c2.789-2.789,4.626-6.802,5.306-12.244H36.733v-9.727h32.856
		c0.34,1.769,0.544,3.809,0.544,6.122c0,7.347-1.973,16.394-8.435,22.788c-6.326,6.53-14.353,10-24.965,10
		C17.006,446.114,0.476,430.128,0.476,410.469z"/>
	<path fill="#EA4335" d="M96.594,400.198c-12.721,0-23.06,9.659-23.06,22.992c0,13.265,10.34,22.992,23.06,22.992
		s23.06-9.727,23.06-22.992C119.654,409.857,109.314,400.198,96.594,400.198z M96.594,437.067c-6.938,0-12.993-5.714-12.993-13.945
		c0-8.299,5.986-13.945,12.993-13.945c6.938,0,12.993,5.646,12.993,13.945C109.587,431.353,103.532,437.067,96.594,437.067z"/>
	<path fill="#FBBC05" d="M146.932,400.198c-12.721,0-23.06,9.659-23.06,22.992c0,13.265,10.34,22.992,23.06,22.992
		c12.721,0,23.06-9.727,23.06-22.992C169.992,409.857,159.652,400.198,146.932,400.198z M146.932,437.067
		c-6.938,0-12.993-5.714-12.993-13.945c0-8.299,5.986-13.945,12.993-13.945s12.993,5.646,12.993,13.945
		C159.924,431.353,153.87,437.067,146.932,437.067z"/>
	<path fill="#4285F4" d="M208.698,401.558v3.741h-0.34c-2.245-2.721-6.598-5.17-12.108-5.17c-11.496,0-22.04,10.068-22.04,23.06
		c0,12.857,10.544,22.924,22.04,22.924c5.51,0,9.864-2.449,12.108-5.238h0.34v3.333c0,8.775-4.694,13.469-12.244,13.469
		c-6.19,0-10-4.422-11.564-8.163l-8.775,3.673c2.517,6.122,9.251,13.605,20.407,13.605c11.836,0,21.836-6.938,21.836-23.945v-41.291
		C218.357,401.558,208.698,401.558,208.698,401.558z M197.134,437.067c-6.938,0-12.789-5.85-12.789-13.877
		c0-8.095,5.85-14.013,12.789-14.013c6.87,0,12.244,5.918,12.244,14.013C209.446,431.285,204.004,437.067,197.134,437.067z"/>
	<polygon fill="#34A853" points="235.363,444.753 225.296,444.753 225.296,377.205 235.363,377.205 	"/>
	<path fill="#EA4335" d="M263.049,437.067c-5.17,0-8.775-2.381-11.156-6.938l30.747-12.721l-1.02-2.585
		c-1.905-5.17-7.755-14.625-19.659-14.625c-11.836,0-21.7,9.319-21.7,22.992c0,12.857,9.727,22.992,22.788,22.992
		c10.544,0,16.598-6.462,19.183-10.204l-7.823-5.238C271.756,434.55,268.219,437.067,263.049,437.067z M262.301,409.041
		c4.013,0,7.415,1.973,8.503,4.898l-20.543,8.503C249.989,413.598,257.131,409.041,262.301,409.041z"/>
</g>
<g id="content">
	<path fill="#757575" d="M334.407,446.114c-9.183,0-16.87-3.129-23.06-9.319c-6.19-6.19-9.319-13.945-9.319-23.264
		c0-9.319,3.129-17.006,9.319-23.264c6.19-6.19,13.877-9.319,23.06-9.319c9.387,0,17.006,3.401,22.924,10.204l-5.578,5.374
		c-4.217-5.306-10-7.891-17.346-7.891c-6.802,0-12.516,2.313-17.21,6.87c-4.694,4.558-7.007,10.612-7.007,18.026
		c0,7.415,2.313,13.469,7.007,18.026c4.694,4.558,10.408,6.87,17.21,6.87c7.483,0,13.877-2.993,19.183-9.047l5.578,5.578
		c-2.857,3.401-6.394,6.122-10.68,8.163C344.135,445.162,339.509,446.114,334.407,446.114z"/>
	<path fill="#757575" d="M378.963,446.114c-4.558,0-8.299-1.292-11.36-3.945c-3.061-2.585-4.558-6.054-4.558-10.34
		c0-4.626,1.769-8.299,5.374-10.952c3.605-2.653,8.027-3.945,13.333-3.945c4.694,0,8.571,0.884,11.564,2.585v-1.224
		c0-3.129-1.088-5.646-3.197-7.551c-2.177-1.905-4.762-2.857-7.891-2.857c-2.313,0-4.422,0.544-6.326,1.633
		c-1.905,1.088-3.197,2.585-3.877,4.558l-7.347-3.129c1.02-2.585,2.925-4.898,5.85-7.075c2.925-2.177,6.734-3.265,11.496-3.265
		c5.442,0,10,1.565,13.605,4.762s5.374,7.687,5.374,13.469v25.917h-7.687v-5.918h-0.34
		C389.779,443.733,385.085,446.114,378.963,446.114z M380.255,438.835c3.333,0,6.326-1.224,8.979-3.673
		c2.721-2.449,4.081-5.374,4.081-8.775c-2.245-1.837-5.646-2.789-10.204-2.789c-3.877,0-6.802,0.816-8.775,2.517
		c-1.973,1.701-2.993,3.673-2.993,5.918c0,2.109,0.884,3.741,2.721,4.966C375.834,438.223,377.943,438.835,380.255,438.835z"/>
	<path fill="#757575" d="M418.009,444.754h-8.027v-42.651h7.687v6.938h0.34c0.816-2.313,2.449-4.217,5.034-5.714
		c2.517-1.497,4.966-2.245,7.347-2.245s4.354,0.34,5.986,1.02l-3.061,7.483c-1.02-0.408-2.449-0.612-4.285-0.612
		c-2.925,0-5.442,1.156-7.687,3.469c-2.245,2.313-3.333,5.306-3.333,8.979V444.754z"/>
	<path fill="#757575" d="M458.347,446.114c-6.462,0-11.7-2.177-15.714-6.462c-4.013-4.286-6.054-9.727-6.054-16.258
		c0-6.19,1.973-11.564,5.85-16.054c3.945-4.49,8.911-6.734,15.033-6.734c6.326,0,11.36,2.041,15.169,6.19
		c3.809,4.149,5.714,9.659,5.714,16.53l-0.068,1.497h-33.672c0.204,4.286,1.701,7.687,4.286,10.204
		c2.653,2.517,5.714,3.741,9.251,3.741c5.714,0,9.659-2.449,11.7-7.347l7.143,2.993c-1.36,3.333-3.673,6.054-6.87,8.299
		C466.918,445.026,462.973,446.114,458.347,446.114z M469.843,418.292c-0.204-2.449-1.292-4.762-3.333-6.938
		c-2.041-2.177-5.102-3.333-9.183-3.333c-2.993,0-5.51,0.952-7.687,2.789c-2.177,1.837-3.673,4.354-4.49,7.483
		C445.151,418.292,469.843,418.292,469.843,418.292z"/>
	<path fill="#757575" d="M505.42,446.114c-6.462,0-11.7-2.177-15.714-6.462c-4.013-4.286-6.054-9.727-6.054-16.258
		c0-6.19,1.973-11.564,5.85-16.054c3.945-4.49,8.911-6.734,15.033-6.734c6.326,0,11.36,2.041,15.169,6.19s5.714,9.659,5.714,16.53
		l-0.068,1.497h-33.672c0.204,4.286,1.701,7.687,4.285,10.204c2.653,2.517,5.714,3.741,9.251,3.741c5.714,0,9.659-2.449,11.7-7.347
		l7.143,2.993c-1.36,3.333-3.673,6.054-6.87,8.299C513.991,445.026,510.114,446.114,505.42,446.114z M516.916,418.292
		c-0.204-2.449-1.292-4.762-3.333-6.938c-2.041-2.177-5.102-3.333-9.183-3.333c-2.993,0-5.51,0.952-7.687,2.789
		c-2.177,1.837-3.673,4.354-4.49,7.483C492.223,418.292,516.916,418.292,516.916,418.292z"/>
	<path fill="#757575" d="M540.793,444.754h-8.027v-42.651h7.687v6.938h0.34c0.816-2.313,2.449-4.217,5.034-5.714
		c2.517-1.497,4.966-2.245,7.347-2.245s4.354,0.34,5.986,1.02l-3.061,7.483c-1.02-0.408-2.449-0.612-4.286-0.612
		c-2.925,0-5.442,1.156-7.687,3.469c-2.245,2.313-3.333,5.306-3.333,8.979V444.754z"/>
	<path fill="#757575" d="M578.478,446.114c-4.762,0-8.707-1.156-11.768-3.469c-3.129-2.313-5.374-5.238-6.802-8.707l7.143-2.993
		c2.245,5.374,6.122,8.027,11.564,8.027c2.517,0,4.558-0.544,6.122-1.633c1.565-1.088,2.381-2.585,2.381-4.354
		c0-2.789-1.973-4.694-5.85-5.646l-8.639-2.109c-2.721-0.68-5.306-2.041-7.755-3.945c-2.449-1.973-3.673-4.558-3.673-7.891
		c0-3.741,1.701-6.802,5.034-9.183c3.333-2.381,7.279-3.537,11.904-3.537c3.741,0,7.143,0.884,10.068,2.585
		c2.993,1.701,5.102,4.149,6.326,7.347l-6.87,2.857c-1.565-3.741-4.83-5.646-9.727-5.646c-2.381,0-4.354,0.476-5.986,1.497
		c-1.633,1.02-2.449,2.313-2.449,4.013c0,2.449,1.905,4.081,5.646,4.966l8.435,1.973c4.013,0.952,6.938,2.517,8.911,4.762
		c1.905,2.245,2.857,4.83,2.857,7.687c0,3.809-1.565,7.007-4.694,9.591C587.457,444.89,583.444,446.114,578.478,446.114z"/>
</g>
</svg>
