<svg version="1.1" xmlns="http://www.w3.org/2000/svg" xmlns:xlink="http://www.w3.org/1999/xlink" viewBox="0 0 32 32" fill="#bdbdbd" width="32px" height="32px">
  <path d="M16,0C7.2,0,0,7.2,0,16c0,3,0.9,5.9,2.3,8.3L0,32l7.7-2.3 C10.2,31.1,13,32,16,32c8.8,0,16-7.2,16-16C32,7.2,24.8,0,16,0z M17.3,24.6c-0.3,0.3-0.7,0.5-1.2,0.5s-1-0.2-1.2-0.5 c-0.3-0.3-0.4-0.7-0.4-1.1c0-0.2,0-0.4,0.1-0.6c0.1-0.2,0.2-0.4,0.3-0.5c0.1-0.1,0.3-0.3,0.5-0.3c0.2-0.1,0.4-0.1,0.7-0.1 c0.3,0,0.5,0,0.7,0.1c0.2,0.1,0.4,0.2,0.5,0.3c0.1,0.1,0.3,0.3,0.3,0.5c0.1,0.2,0.1,0.4,0.1,0.6C17.7,24,17.6,24.3,17.3,24.6z M21.1,13.2c-0.2,0.5-0.4,0.9-0.6,1.3c-0.3,0.4-0.6,0.8-0.9,1.2c-0.3,0.4-0.7,0.8-1,1.1c-0.4,0.4-0.7,0.9-0.9,1.4 c-0.2,0.5-0.2,0.8-0.3,1.8h-2.8c0-1,0-1.2,0.1-1.6c0.1-0.4,0.2-1,0.3-1.3c0.2-0.3,0.4-0.7,0.6-1c0.2-0.3,0.6-0.7,0.9-1 c0.2-0.3,0.5-0.5,0.7-0.7c0.2-0.2,0.4-0.5,0.6-0.7c0.2-0.3,0.3-0.5,0.4-0.8c0.1-0.3,0.1-0.6,0.1-1c0-0.8-0.2-1.4-0.6-1.8 c-0.4-0.4-1-0.6-1.7-0.6c-0.3,0-0.6,0.1-0.9,0.1c-0.3,0.1-0.5,0.2-0.8,0.4s-0.4,0.6-0.5,0.8c-0.1,0.3-0.2,1.2-0.2,1.2h-3 c0-2,0.2-1.6,0.4-2.2c0.3-0.6,0.7-1.2,1.1-1.6c0.5-0.4,1-0.7,1.7-0.9C14.6,7,15.3,6.9,16,6.9c0.8,0,1.6,0.1,2.2,0.3 c0.7,0.2,1.2,0.5,1.7,0.9c0.5,0.4,0.8,0.9,1,1.5c0.2,0.6,0.4,1.3,0.4,2.1C21.3,12.3,21.2,12.8,21.1,13.2z"></path>
</svg>